<svg width="8" height="12" viewBox="0 0 8 12" fill="none" xmlns="http://www.w3.org/2000/svg">
<path d="M7.38352 6.49512L2.07883 11.7998C1.95123 11.9274 1.79628 11.9912 1.61399 11.9912C1.4317 11.9912 1.27675 11.9274 1.14915 11.7998L0.547583 11.1982C0.419979 11.0706 0.347062 10.9157 0.328833 10.7334C0.328833 10.5511 0.392635 10.3962 0.520239 10.2686L4.75852 6.03027L0.520239 1.79199C0.392635 1.66439 0.328833 1.50944 0.328833 1.32715C0.347062 1.14486 0.419979 0.989909 0.547583 0.862305L1.14915 0.260742C1.27675 0.133138 1.4317 0.0693359 1.61399 0.0693359C1.79628 0.0693359 1.95123 0.133138 2.07883 0.260742L7.38352 5.56543C7.52935 5.69303 7.60227 5.84798 7.60227 6.03027C7.60227 6.21257 7.52935 6.36751 7.38352 6.49512Z" fill="#616161"/>
</svg>
