<svg width="17" height="19" viewBox="0 0 17 19" fill="none" xmlns="http://www.w3.org/2000/svg">
<path d="M12.925 6.44507H16.3V16.0076C16.3 16.781 16.0187 17.4373 15.4562 17.9763C14.9171 18.5388 14.2609 18.8201 13.4875 18.8201H3.36245C2.58901 18.8201 1.92104 18.5388 1.35854 17.9763C0.819482 17.4373 0.549951 16.781 0.549951 16.0076V6.44507H3.92495V5.32007C3.92495 4.07788 4.35854 3.02319 5.22573 2.15601C6.11636 1.26538 7.18276 0.820068 8.42495 0.820068C9.66714 0.820068 10.7218 1.26538 11.589 2.15601C12.4796 3.02319 12.925 4.07788 12.925 5.32007V6.44507ZM6.17495 5.32007V6.44507H10.675V5.32007C10.675 4.71069 10.4523 4.18335 10.007 3.73804C9.56167 3.29272 9.03433 3.07007 8.42495 3.07007C7.81558 3.07007 7.28823 3.29272 6.84292 3.73804C6.39761 4.18335 6.17495 4.71069 6.17495 5.32007ZM11.2023 9.29272C11.3664 9.45679 11.5656 9.53882 11.8 9.53882C12.0343 9.53882 12.2335 9.45679 12.3976 9.29272C12.5617 9.12866 12.6437 8.92944 12.6437 8.69507C12.6437 8.46069 12.5617 8.26147 12.3976 8.09741C12.2335 7.93335 12.0343 7.85132 11.8 7.85132C11.5656 7.85132 11.3664 7.93335 11.2023 8.09741C11.0382 8.26147 10.9562 8.46069 10.9562 8.69507C10.9562 8.92944 11.0382 9.12866 11.2023 9.29272ZM4.45229 9.29272C4.61636 9.45679 4.81558 9.53882 5.04995 9.53882C5.28433 9.53882 5.48354 9.45679 5.64761 9.29272C5.81167 9.12866 5.8937 8.92944 5.8937 8.69507C5.8937 8.46069 5.81167 8.26147 5.64761 8.09741C5.48354 7.93335 5.28433 7.85132 5.04995 7.85132C4.81558 7.85132 4.61636 7.93335 4.45229 8.09741C4.28823 8.26147 4.2062 8.46069 4.2062 8.69507C4.2062 8.92944 4.28823 9.12866 4.45229 9.29272Z" fill="black"/>
<a href="https://www.figma.com/design/Zo6jkxWkt6KhJdxu9rbYBl?node-id=43-2">
<rect fill="black" fill-opacity="0" x="0.0999999" width="15.75" height="18"/>
</a>
</svg>
