<svg width="34" height="52" viewBox="0 0 34 52" fill="none" xmlns="http://www.w3.org/2000/svg">
<path d="M30.015 35.6826V5.93262C30.015 4.52365 29.4553 3.1724 28.459 2.17611C27.4627 1.17983 26.1115 0.620117 24.7025 0.620117L5.57751 0.620117C4.16855 0.620117 2.8173 1.17983 1.82101 2.17611C0.824723 3.1724 0.265015 4.52365 0.265015 5.93262V44.1826C0.265015 45.5916 0.824723 46.9428 1.82101 47.9391C2.8173 48.9354 4.16855 49.4951 5.57751 49.4951H12.2606L14.4494 51.3651C14.6636 51.5483 14.9417 51.6389 15.2227 51.617C15.5036 51.595 15.7643 51.4624 15.9475 51.2482C16.1307 51.0341 16.2213 50.7559 16.1993 50.475C16.1774 50.194 16.0448 49.9333 15.8306 49.7501L9.45564 44.2676C9.28937 44.122 9.1787 43.9232 9.14245 43.7051C9.10621 43.4871 9.14663 43.2632 9.25684 43.0716C9.36705 42.88 9.54024 42.7324 9.74695 42.6541C9.95366 42.5758 10.1811 42.5715 10.3906 42.642L14.8 44.1826C14.9598 44.2353 15.1298 44.2493 15.2961 44.2234C15.4623 44.1976 15.62 44.1326 15.7563 44.0339C15.9011 43.931 16.0178 43.7935 16.0958 43.6338C16.1738 43.4742 16.2105 43.2976 16.2025 43.1201V29.3076C16.2025 29.0258 16.3145 28.7556 16.5137 28.5563C16.713 28.3571 16.9832 28.2451 17.265 28.2451C17.5468 28.2451 17.8171 28.3571 18.0163 28.5563C18.2156 28.7556 18.3275 29.0258 18.3275 29.3076V40.9951C18.3275 41.2769 18.4395 41.5472 18.6387 41.7464C18.838 41.9457 19.1082 42.0576 19.39 42.0576C19.6718 42.0576 19.9421 41.9457 20.1413 41.7464C20.3406 41.5472 20.4525 41.2769 20.4525 40.9951V36.7451C20.4525 36.4633 20.5645 36.1931 20.7637 35.9938C20.963 35.7946 21.2332 35.6826 21.515 35.6826C21.7968 35.6826 22.0671 35.7946 22.2663 35.9938C22.4656 36.1931 22.5775 36.4633 22.5775 36.7451V40.9951C22.5775 41.2769 22.6895 41.5472 22.8887 41.7464C23.088 41.9457 23.3582 42.0576 23.64 42.0576C23.9218 42.0576 24.1921 41.9457 24.3913 41.7464C24.5906 41.5472 24.7025 41.2769 24.7025 40.9951V37.8076C24.7025 37.5258 24.8145 37.2556 25.0137 37.0563C25.213 36.8571 25.4832 36.7451 25.765 36.7451C26.0468 36.7451 26.3171 36.8571 26.5163 37.0563C26.7156 37.2556 26.8275 37.5258 26.8275 37.8076V40.9951C26.8275 41.2769 26.9395 41.5472 27.1387 41.7464C27.338 41.9457 27.6082 42.0576 27.89 42.0576C28.1718 42.0576 28.4421 41.9457 28.6413 41.7464C28.8406 41.5472 28.9525 41.2769 28.9525 40.9951V38.8701C28.9525 38.5883 29.0645 38.3181 29.2637 38.1188C29.463 37.9196 29.7332 37.8076 30.015 37.8076C30.2968 37.8076 30.5671 37.9196 30.7663 38.1188C30.9656 38.3181 31.0775 38.5883 31.0775 38.8701V50.5576C31.0775 50.8394 31.1895 51.1097 31.3887 51.3089C31.588 51.5082 31.8582 51.6201 32.14 51.6201C32.4218 51.6201 32.6921 51.5082 32.8913 51.3089C33.0906 51.1097 33.2025 50.8394 33.2025 50.5576V38.8701C33.2025 38.0247 32.8667 37.214 32.2689 36.6162C31.6711 36.0184 30.8604 35.6826 30.015 35.6826ZM20.4525 2.74512V3.80762C20.4525 4.08941 20.3406 4.35966 20.1413 4.55892C19.9421 4.75818 19.6718 4.87012 19.39 4.87012H10.89C10.6082 4.87012 10.338 4.75818 10.1387 4.55892C9.93946 4.35966 9.82751 4.08941 9.82751 3.80762V2.74512H20.4525ZM17.265 26.1201C16.6074 26.122 15.9664 26.3272 15.43 26.7076C14.8936 27.0881 14.488 27.6251 14.2688 28.2451H7.70251V27.1826C7.70251 26.2059 7.89489 25.2388 8.26866 24.3364C8.64243 23.4341 9.19027 22.6141 9.88091 21.9235C10.5715 21.2329 11.3914 20.685 12.2938 20.3113C13.1962 19.9375 14.1633 19.7451 15.14 19.7451C16.1167 19.7451 17.0839 19.9375 17.9862 20.3113C18.8886 20.685 19.7085 21.2329 20.3991 21.9235C21.0898 22.6141 21.6376 23.4341 22.0114 24.3364C22.3851 25.2388 22.5775 26.2059 22.5775 27.1826V28.2451H20.2613C20.0421 27.6251 19.6364 27.0881 19.1 26.7076C18.5636 26.3272 17.9226 26.122 17.265 26.1201ZM25.765 34.6201C25.2161 34.6221 24.6774 34.7687 24.2031 35.0451C23.8166 34.4369 23.2353 33.9776 22.5541 33.7422C21.873 33.5067 21.1322 33.5091 20.4525 33.7489V30.3701H24.7025C24.9843 30.3701 25.2546 30.2582 25.4538 30.0589C25.6531 29.8597 25.765 29.5894 25.765 29.3076C25.765 29.0258 25.6531 28.7556 25.4538 28.5563C25.2546 28.3571 24.9843 28.2451 24.7025 28.2451V27.1826C24.7014 24.8312 23.834 22.5627 22.266 20.8105C20.698 19.0582 18.5393 17.9451 16.2025 17.6839V16.5576C16.2025 16.2758 16.0906 16.0056 15.8913 15.8063C15.6921 15.6071 15.4218 15.4951 15.14 15.4951C14.8582 15.4951 14.588 15.6071 14.3887 15.8063C14.1895 16.0056 14.0775 16.2758 14.0775 16.5576V17.6839C11.7407 17.9451 9.58206 19.0582 8.01406 20.8105C6.44606 22.5627 5.57863 24.8312 5.57751 27.1826V28.2451C5.29572 28.2451 5.02547 28.3571 4.82621 28.5563C4.62696 28.7556 4.51501 29.0258 4.51501 29.3076C4.51501 29.5894 4.62696 29.8597 4.82621 30.0589C5.02547 30.2582 5.29572 30.3701 5.57751 30.3701H14.0775V41.6432L11.0175 40.5807C10.3414 40.3551 9.60808 40.3709 8.94232 40.6253C8.27656 40.8797 7.71958 41.357 7.36624 41.976C7.01291 42.595 6.88507 43.3173 7.00451 44.0199C7.12394 44.7225 7.48326 45.362 8.02126 45.8295L9.82751 47.3701H5.57751C4.73214 47.3701 3.92138 47.0343 3.32361 46.4365C2.72584 45.8387 2.39001 45.028 2.39001 44.1826V5.93262C2.39001 5.08724 2.72584 4.27649 3.32361 3.67871C3.92138 3.08094 4.73214 2.74512 5.57751 2.74512H7.70251V3.80762C7.70251 4.65299 8.03834 5.46375 8.63611 6.06152C9.23388 6.65929 10.0446 6.99512 10.89 6.99512H19.39C20.2354 6.99512 21.0461 6.65929 21.6439 6.06152C22.2417 5.46375 22.5775 4.65299 22.5775 3.80762V2.74512H24.7025C25.5479 2.74512 26.3586 3.08094 26.9564 3.67871C27.5542 4.27649 27.89 5.08724 27.89 5.93262V35.4489C27.3082 34.92 26.5513 34.6248 25.765 34.6201Z" fill="#F5274C"/>
</svg>
