<svg width="52" height="52" viewBox="0 0 52 52" fill="none" xmlns="http://www.w3.org/2000/svg">
<path d="M25.8842 5.21363C25.7217 5.05616 25.4984 4.972 25.2743 4.982C23.812 5.03949 22.3539 5.24446 20.9416 5.59274L21.3407 7.21084C22.3647 6.95838 23.4145 6.78757 24.4735 6.70008V22.4578H6.58117C6.80031 21.4246 7.10193 20.4081 7.48104 19.424L5.9271 18.8241C5.38801 20.2206 4.99391 21.6787 4.75561 23.1577C4.71645 23.3993 4.7856 23.6443 4.94391 23.8309C5.10222 24.0175 5.33386 24.1242 5.57799 24.1242H25.3068C25.7675 24.1242 26.14 23.7509 26.14 23.291V5.81438C26.14 5.58774 26.0483 5.37111 25.8842 5.21363Z" fill="#F5274C"/>
<path d="M43.4699 13.6249L42.1368 14.6256C44.7539 18.1075 46.137 22.2561 46.137 26.6238C46.137 26.8896 46.1304 27.1654 46.117 27.457H29.4728V6.90919C30.7968 7.13165 32.0949 7.4866 33.3439 7.96903L33.9447 6.41509C32.2757 5.77019 30.5243 5.33442 28.7396 5.12111C28.4988 5.09279 28.2655 5.16777 28.0872 5.32525C27.908 5.48273 27.8064 5.70936 27.8064 5.94849V28.2902C27.8064 28.7501 28.1788 29.1234 28.6396 29.1234H46.8978C47.3319 29.1234 47.6935 28.7893 47.7285 28.3569C47.7793 27.7236 47.8035 27.157 47.8035 26.6238C47.8035 21.892 46.3045 17.3976 43.4699 13.6249Z" fill="#F5274C"/>
<path d="M25.3068 25.7905H5.30977C4.84901 25.7905 4.47656 26.1638 4.47656 26.6237C4.47656 27.7877 4.56905 28.9534 4.75236 30.0899L6.39795 29.8249C6.27213 29.0467 6.19298 28.2535 6.16048 27.4569H24.4736V46.5475C22.8597 46.4142 21.2741 46.0875 19.7468 45.5726L19.2144 47.1524C21.1649 47.8098 23.203 48.1847 25.2735 48.2656C25.2843 48.2656 25.2952 48.2664 25.306 48.2664C25.521 48.2664 25.7284 48.1831 25.8834 48.0339C26.0484 47.8764 26.14 47.6598 26.14 47.4332V26.6237C26.14 26.1638 25.7676 25.7905 25.3068 25.7905Z" fill="#F5274C"/>
<path d="M47.0169 31.1097C46.8603 30.9073 46.6186 30.7898 46.3628 30.7898H28.6396C28.1788 30.7898 27.8064 31.1631 27.8064 31.623V47.299C27.8064 47.5373 27.908 47.764 28.0864 47.9223C28.2405 48.0589 28.4371 48.1322 28.6396 48.1322C28.6721 48.1322 28.7054 48.1306 28.7388 48.1264C29.6103 48.0223 30.4852 47.8631 31.3384 47.6532L30.9393 46.0351C30.456 46.1542 29.9652 46.2559 29.472 46.3383V32.4562H45.268C45.2105 32.6462 45.1497 32.8353 45.0864 33.0236L46.6653 33.5561C46.8586 32.9828 47.0294 32.3996 47.1702 31.823C47.2319 31.5747 47.1752 31.3114 47.0169 31.1097Z" fill="#F5274C"/>
<path d="M20.1376 8.79808C20.1367 8.79725 20.1359 8.79725 20.135 8.79725C18.9694 7.92238 17.5888 7.45994 16.1415 7.45994C15.8907 7.45994 15.6357 7.47911 15.3749 7.5116C14.5625 5.85185 13.1594 4.53454 11.4363 3.83881C12.1229 3.11058 12.9853 2.5365 13.9343 2.17989L13.3485 0.620117C12.1512 1.06922 11.0631 1.79578 10.1998 2.71981C9.99988 2.93394 9.8224 3.15141 9.65742 3.37055C9.32414 3.32555 8.98752 3.29389 8.64257 3.29389C4.50735 3.29389 1.14368 6.6584 1.14368 10.7928C1.14368 14.9272 4.50735 18.2917 8.64257 18.2917C9.36164 18.2917 10.0557 18.1842 10.7148 17.9942C11.6671 19.3274 13.0853 20.2731 14.695 20.6297C14.6959 20.6297 14.6959 20.6305 14.6967 20.6305C15.1799 20.7372 15.6665 20.7913 16.1415 20.7913C17.7279 20.7913 19.2685 20.2197 20.4775 19.1832C20.4783 19.1824 20.4783 19.1824 20.4792 19.1816C21.9581 17.9117 22.8072 16.0687 22.8072 14.1256C22.8072 12.0143 21.834 10.0729 20.1376 8.79808ZM8.64257 16.6253C5.42721 16.6253 2.8101 14.009 2.8101 10.7928C2.8101 7.57659 5.42721 4.96031 8.64257 4.96031C8.66507 4.96031 8.6859 4.96364 8.7084 4.96364C8.38261 5.68771 8.20097 6.36677 8.10099 6.91669L9.73991 7.21581C9.83907 6.67256 10.0382 5.97266 10.429 5.24277C12.1229 5.78936 13.4752 7.09083 14.0984 8.74892C14.1576 8.90723 14.2101 9.06637 14.2551 9.22635C14.2609 9.24718 14.2659 9.26801 14.2709 9.28884C14.3101 9.43382 14.3442 9.5788 14.3726 9.72544C14.3842 9.7896 14.3926 9.85459 14.4026 9.91875C14.4192 10.0271 14.4367 10.1354 14.4476 10.2445C14.4642 10.4245 14.475 10.6078 14.475 10.7928C14.475 11.2219 14.4226 11.6668 14.3184 12.1151C13.716 14.6955 11.403 16.6253 8.64257 16.6253ZM14.2592 18.7549C13.5027 18.4467 12.8353 17.9534 12.3095 17.3268C13.5402 16.6336 14.5584 15.6071 15.2341 14.3656L14.2592 18.7549ZM21.0716 13.2924H17.8079L19.7634 10.6861C20.455 11.4085 20.9083 12.3101 21.0716 13.2924ZM18.4303 9.68462L17.7021 10.6553L16.2456 12.5967L16.009 12.1701V12.1693C16.0507 11.946 16.0848 11.7202 16.1056 11.4902C16.129 11.2569 16.1415 11.0236 16.1415 10.7928C16.1415 10.517 16.124 10.2454 16.0948 9.97707C16.0906 9.93791 16.0823 9.89959 16.0773 9.86042C16.0473 9.61963 16.0065 9.38216 15.954 9.14886C15.9532 9.14303 15.9523 9.1372 15.9507 9.13053C16.8439 9.09137 17.6696 9.28967 18.4303 9.68462ZM15.8857 19.1182L16.5931 15.9337L18.7144 18.4083C17.8679 18.9174 16.8889 19.1699 15.8857 19.1182ZM19.9792 17.3227L17.9537 14.9588H21.0707C20.9233 15.8279 20.5467 16.6436 19.9792 17.3227Z" fill="#F5274C"/>
<path d="M33.639 16.6252H31.9725V18.2917H33.639V16.6252Z" fill="#F5274C"/>
<path d="M36.9717 18.2916H35.3053V19.958H36.9717V18.2916Z" fill="#F5274C"/>
<path d="M40.3046 24.1241H38.6382V25.7906H40.3046V24.1241Z" fill="#F5274C"/>
<path d="M33.639 23.2909H31.9725V24.9573H33.639V23.2909Z" fill="#F5274C"/>
<path d="M32.8057 19.9581H31.1393V21.6246H32.8057V19.9581Z" fill="#F5274C"/>
<path d="M44.4706 20.7913H42.8042V22.4577H44.4706V20.7913Z" fill="#F5274C"/>
<path d="M40.3046 17.4585H38.6382V19.1249H40.3046V17.4585Z" fill="#F5274C"/>
<path d="M36.9717 21.6245H35.3053V23.2909H36.9717V21.6245Z" fill="#F5274C"/>
<path d="M40.3046 20.7913H38.6382V22.4577H40.3046V20.7913Z" fill="#F5274C"/>
<path d="M51.1363 1.6275C48.965 1.6275 46.8969 2.19241 45.0355 3.16394C44.8731 2.79399 44.6523 2.43988 44.3515 2.13909C43.2191 1.00759 41.1319 1.5925 40.897 1.66249C40.6295 1.74331 40.4195 1.95245 40.3387 2.21991C40.2687 2.45404 39.683 4.54124 40.8162 5.6744C40.947 5.80438 41.0886 5.91603 41.2328 6.02019C40.687 6.59343 40.1921 7.21918 39.7355 7.87658C39.6205 7.70994 39.4988 7.54663 39.3522 7.39998C38.254 6.30264 36.2035 6.67842 35.9727 6.72591C35.6644 6.78841 35.4178 7.0192 35.3336 7.32249C35.2211 7.73327 34.7171 9.83546 35.8169 10.9353C36.3693 11.486 37.0634 11.7952 37.7508 11.856C37.2542 13.3633 36.9717 14.9655 36.9717 16.6253H38.6381C38.6381 15.428 38.8165 14.2598 39.1247 13.1375C39.5847 13.3974 40.1304 13.5532 40.7212 13.5532C42.3143 13.5532 43.4116 11.6752 43.5316 11.4602C43.6724 11.2078 43.6724 10.8995 43.5316 10.6462C43.4266 10.4587 42.5751 9.00058 41.2986 8.63647C41.8102 7.93407 42.3818 7.28417 43.0067 6.69509C43.4316 7.62828 44.4848 8.29318 45.7204 8.29318C47.3135 8.29318 48.4109 6.41513 48.5309 6.20016C48.6717 5.9477 48.6717 5.63941 48.5309 5.38611C48.4592 5.2578 48.0318 4.53624 47.3627 3.97549C48.565 3.53888 49.834 3.29392 51.1363 3.29392V1.6275ZM38.6365 9.70381C38.5698 9.83463 38.514 9.97127 38.4507 10.1046C38.4032 10.1171 38.3549 10.1279 38.3099 10.1487C37.9949 10.2912 37.4433 10.2037 36.9959 9.7563C36.7718 9.53217 36.7584 8.87477 36.8376 8.29735C37.35 8.27402 37.9316 8.33568 38.174 8.57814C38.4882 8.89226 38.6648 9.3072 38.6348 9.66132C38.634 9.67548 38.6373 9.68965 38.6365 9.70381ZM41.806 11.0536C41.4819 11.4777 41.042 11.8868 40.7212 11.8868C40.2929 11.8868 39.9013 11.7252 39.6738 11.5052C39.8463 11.0911 40.0396 10.6878 40.2496 10.2937C40.3996 10.2487 40.557 10.2204 40.7212 10.2204C41.0428 10.2204 41.4819 10.6295 41.806 11.0536ZM42.5176 4.83786C42.3401 4.76454 42.161 4.66288 41.9951 4.49624C41.7702 4.27128 41.7569 3.67803 41.836 3.15977C42.3251 3.08728 42.9375 3.08145 43.1733 3.31725C43.3816 3.52555 43.5216 3.77802 43.5891 4.02798C43.22 4.28044 42.8634 4.55123 42.5176 4.83786ZM45.7204 6.62676C45.0547 6.62676 44.4706 6.23765 44.469 5.84104C44.4715 5.82605 44.4823 5.75772 44.4839 5.74273C44.4939 5.6594 44.4881 5.57692 44.4731 5.4961C44.6548 5.36861 44.8397 5.24697 45.0264 5.12865C45.238 5.02616 45.4713 4.96034 45.7204 4.96034C46.0421 4.96034 46.4812 5.36945 46.8053 5.79355C46.4812 6.21766 46.0412 6.62676 45.7204 6.62676Z" fill="#F5274C"/>
<path d="M20.1309 34.3502C20.2475 34.0111 20.3075 33.6536 20.3075 33.2895C20.3075 31.4514 18.8127 29.9567 16.9747 29.9567C15.959 29.9567 15.0133 30.4291 14.3917 31.1965C13.6935 30.8157 12.8586 30.6941 12.0762 30.8724C11.3397 30.2783 10.4331 29.9567 9.47579 29.9567C7.17862 29.9567 5.30973 31.8256 5.30973 34.1227C3.47167 34.1227 1.97689 35.6175 1.97689 37.4556C1.97689 38.0196 2.11687 38.5604 2.38016 39.0412C1.61444 39.6627 1.14368 40.6068 1.14368 41.6216C1.14368 43.4597 2.63846 44.9545 4.47652 44.9545C5.68134 44.9545 6.74035 44.3112 7.32527 43.3497L8.67424 46.0476L9.48745 50.9236C9.55411 51.3252 9.90156 51.6201 10.309 51.6201H16.9747C17.4354 51.6201 17.8079 51.2469 17.8079 50.7869V45.8568L18.6294 40.9259C18.6369 40.8801 18.6411 40.8342 18.6411 40.7884C20.9383 40.7884 22.8072 39.2936 22.8072 37.4556C22.8072 36.0424 21.7032 34.8293 20.1309 34.3502ZM18.6411 39.122C18.4445 39.122 18.2395 39.0978 17.977 39.0437C17.7321 38.9928 17.4763 39.0553 17.2821 39.2136C17.088 39.3719 16.9747 39.6086 16.9747 39.8594V40.7201L16.1531 45.651C16.1456 45.696 16.1415 45.7418 16.1415 45.7877V49.9537H11.0147L10.2982 45.6502C10.284 45.5685 10.259 45.4894 10.2215 45.4144L7.72188 40.4151C7.58023 40.1335 7.29194 39.9552 6.97615 39.9552H6.80951C6.53705 39.9552 6.28125 40.0885 6.12628 40.3118C5.96963 40.5359 5.93381 40.8217 6.02796 41.0767C6.10628 41.29 6.14294 41.4633 6.14294 41.6216C6.14294 42.5406 5.39555 43.288 4.47652 43.288C3.55749 43.288 2.8101 42.5406 2.8101 41.6216C2.8101 40.9317 3.2492 40.306 3.90327 40.0652C4.1749 39.9644 4.37487 39.7311 4.43236 39.4461C4.48902 39.162 4.39403 38.8687 4.18156 38.672C3.83411 38.3504 3.64331 37.918 3.64331 37.4556C3.64331 36.5365 4.3907 35.7891 5.30973 35.7891C5.47637 35.7891 5.65218 35.8241 5.86048 35.8991C6.11545 35.9908 6.39874 35.9524 6.62204 35.7966C6.84451 35.6408 6.97615 35.3867 6.97615 35.1151V34.1227C6.97615 32.7446 8.09765 31.6231 9.47579 31.6231C10.1549 31.6231 10.7923 31.8947 11.2689 32.388C11.5047 32.6329 11.8671 32.7096 12.1821 32.5804C12.8295 32.3155 13.556 32.488 14.0259 32.9946C14.2234 33.207 14.5175 33.302 14.8008 33.2445C15.085 33.1879 15.3191 32.9871 15.4191 32.7154C15.6599 32.0622 16.2848 31.6231 16.9747 31.6231C17.8937 31.6231 18.6411 32.3705 18.6411 33.2895C18.6411 33.6986 18.4845 34.0952 18.1995 34.4068C17.9804 34.6468 17.9212 34.9909 18.0454 35.29C18.1703 35.5892 18.4578 35.7891 18.7819 35.8016C20.0817 35.8525 21.1407 36.5949 21.1407 37.4556C21.1407 38.3588 19.9959 39.122 18.6411 39.122Z" fill="#F5274C"/>
<path d="M45.513 34.1227H44.6398C41.7385 34.1227 39.333 36.2999 39.0439 39.1869L38.684 42.7889L36.9967 43.8013L36.7276 43.5321C36.5718 43.3755 36.3601 43.288 36.1385 43.288H35.7219C34.1138 43.288 32.8057 44.5961 32.8057 46.2042C32.8057 47.6799 33.9072 48.903 35.3311 49.0946C35.5228 50.5186 36.7459 51.6201 38.2215 51.6201C39.8296 51.6201 41.1378 50.312 41.1378 48.7039V48.2873C41.1378 48.0665 41.0503 47.854 40.8936 47.6982L40.6245 47.4291L41.6344 45.746L46.0221 45.3469C48.9375 45.0819 51.1363 42.6739 51.1363 39.7469C51.1363 36.6456 48.6142 34.1227 45.513 34.1227ZM38.9864 48.1473L39.4714 48.6322V48.7039C39.4714 49.3929 38.9106 49.9537 38.2215 49.9537C37.5325 49.9537 36.9717 49.3929 36.9717 48.7039V48.2873C36.9717 47.8273 36.5993 47.4541 36.1385 47.4541H35.7219C35.0328 47.4541 34.4721 46.8933 34.4721 46.2042C34.4721 45.5152 35.0328 44.9544 35.7219 44.9544H35.7936L36.2785 45.4394C36.5484 45.7101 36.9676 45.761 37.2967 45.5643L39.3422 44.337L39.7155 44.7103L40.0888 45.0836L38.8614 47.1291C38.6648 47.4574 38.7165 47.8765 38.9864 48.1473ZM45.8712 43.6871L41.4511 44.0887L40.3396 42.9772L40.7028 39.3519C40.9061 37.3205 42.5984 35.7891 44.6398 35.7891H45.513C47.6943 35.7891 49.4699 37.5647 49.4699 39.7469C49.4699 41.8066 47.9234 43.5005 45.8712 43.6871Z" fill="#F5274C"/>
<path d="M10.7806 8.3648C10.1915 9.07053 9.22165 9.31965 8.4226 8.96971C7.74686 8.67308 7.28776 7.97652 7.25277 7.1958L5.58801 7.26996C5.6505 8.67975 6.50038 9.9454 7.75269 10.4953C8.20846 10.6953 8.69256 10.7911 9.17499 10.7911C10.2532 10.7911 11.3255 10.3112 12.0596 9.43297L10.7806 8.3648Z" fill="#F5274C"/>
<path d="M43.1426 38.0088C42.3069 38.6254 41.9894 39.6086 41.9711 40.3243L43.6375 40.3676C43.6392 40.2993 43.6675 39.6927 44.1324 39.3503C44.5599 39.0353 45.1798 39.047 45.678 39.3753L46.5962 37.9846C45.5172 37.2714 44.1283 37.2814 43.1426 38.0088Z" fill="#F5274C"/>
<path d="M12.4612 39.0611C11.4655 38.0779 9.99155 37.4555 8.64258 37.4555V39.1219C10.0974 39.1219 11.9754 40.3343 11.9754 41.6216V44.9544H13.6418V41.6216C13.6418 40.6192 13.8851 38.2887 16.1415 38.2887V36.6223C14.3942 36.6223 13.1128 37.5239 12.4612 39.0611Z" fill="#F5274C"/>
</svg>
